<?xml version="1.0" encoding="iso-8859-1"?>
<svg version="1.1" id="Layer_1" xmlns="http://www.w3.org/2000/svg"
	 viewBox="0 0 305 305" xml:space="preserve">
<g>
	<rect x="45.885" y="7.5" style="fill:#FFDB77;" width="173.23" height="250"/>
	<polygon style="fill:#28D2E4;" points="219.115,47.5 219.115,257.5 85.885,257.5 85.885,297.5 259.115,297.5 259.115,47.5 	"/>
	<g>
		<path style="fill:#22313F;" d="M259.115,40h-32.5V7.5c0-4.142-3.357-7.5-7.5-7.5H45.885c-4.143,0-7.5,3.358-7.5,7.5v250
			c0,4.142,3.357,7.5,7.5,7.5h32.5v32.5c0,4.142,3.357,7.5,7.5,7.5h173.23c4.143,0,7.5-3.358,7.5-7.5v-250
			C266.615,43.358,263.258,40,259.115,40z M53.385,15h158.23c0,8.349,0,226.321,0,235c-5.558,0-147.952,0-158.23,0
			C53.385,250,53.385,15,53.385,15z M251.615,290H93.385v-25h125.73c4.143,0,7.5-3.358,7.5-7.5V55h25V290z"/>
		<path style="fill:#22313F;" d="M92.465,78.713h80.07c4.143,0,7.5-3.358,7.5-7.5s-3.357-7.5-7.5-7.5h-80.07
			c-4.142,0-7.5,3.358-7.5,7.5C84.965,75.355,88.322,78.713,92.465,78.713z"/>
		<path style="fill:#22313F;" d="M92.465,122.211h80.07c4.143,0,7.5-3.358,7.5-7.5s-3.357-7.5-7.5-7.5h-80.07
			c-4.142,0-7.5,3.358-7.5,7.5S88.322,122.211,92.465,122.211z"/>
		<path style="fill:#22313F;" d="M92.465,165.709h80.07c4.143,0,7.5-3.358,7.5-7.5s-3.357-7.5-7.5-7.5h-80.07
			c-4.142,0-7.5,3.358-7.5,7.5S88.322,165.709,92.465,165.709z"/>
	</g>
</g>
</svg>